<svg width="784" height="366" viewBox="0 0 784 366" fill="none" xmlns="http://www.w3.org/2000/svg">
<g filter="url(#filter0_d_106_1862)">
<g filter="url(#filter1_di_106_1862)">
<path d="M173.957 22.7178V21.7178H172.957V22.7178H173.957ZM213.553 22.7178H214.553V21.7178H213.553V22.7178ZM203.769 180.188L202.925 179.651L202.923 179.655L203.769 180.188ZM176.609 204.147L177.047 205.047L177.051 205.045L176.609 204.147ZM95.1303 204.147L94.6888 205.045L94.6926 205.047L95.1303 204.147ZM67.9708 180.188L67.125 180.722L67.9708 180.188ZM58.2775 22.7178V21.7178H57.2775V22.7178H58.2775ZM97.8737 22.7178H98.8737V21.7178H97.8737V22.7178ZM102.537 159.979L101.665 160.468L101.669 160.475L102.537 159.979ZM115.889 173.056L115.405 173.931V173.931L115.889 173.056ZM155.942 173.056L155.458 172.181L155.454 172.183L155.942 173.056ZM169.202 159.979L168.334 159.483L168.33 159.49L169.202 159.979ZM173.957 23.7178H213.553V21.7178H173.957V23.7178ZM212.553 22.7178V144.342H214.553V22.7178H212.553ZM212.553 144.342C212.553 157.832 209.334 169.589 202.925 179.651L204.612 180.726C211.25 170.304 214.553 158.163 214.553 144.342H212.553ZM202.923 179.655C196.566 189.729 187.658 197.595 176.167 203.25L177.051 205.045C188.848 199.239 198.046 191.132 204.614 180.722L202.923 179.655ZM176.171 203.248C164.688 208.84 151.278 211.652 135.915 211.652V213.652C151.523 213.652 165.242 210.794 177.047 205.047L176.171 203.248ZM135.915 211.652C120.491 211.652 107.051 208.84 95.5681 203.248L94.6926 205.047C106.498 210.795 120.248 213.652 135.915 213.652V211.652ZM95.5719 203.25C84.0811 197.595 75.1731 189.729 68.8165 179.655L67.125 180.722C73.6929 191.132 82.8912 199.239 94.6888 205.045L95.5719 203.25ZM68.8165 179.655C62.4675 169.592 59.2775 157.833 59.2775 144.342H57.2775C57.2775 158.162 60.5496 170.301 67.125 180.722L68.8165 179.655ZM59.2775 144.342V22.7178H57.2775V144.342H59.2775ZM58.2775 23.7178H97.8737V21.7178H58.2775V23.7178ZM96.8737 22.7178V140.958H98.8737V22.7178H96.8737ZM96.8737 140.958C96.8737 148.241 98.4625 154.753 101.665 160.468L103.41 159.49C100.394 154.109 98.8737 147.941 98.8737 140.958H96.8737ZM101.669 160.475C104.933 166.186 109.518 170.674 115.405 173.931L116.373 172.181C110.798 169.097 106.483 164.867 103.406 159.483L101.669 160.475ZM115.405 173.931C121.306 177.195 128.153 178.811 135.915 178.811V176.811C128.436 176.811 121.933 175.256 116.373 172.181L115.405 173.931ZM135.915 178.811C143.737 178.811 150.586 177.196 156.43 173.928L155.454 172.183C149.959 175.256 143.457 176.811 135.915 176.811V178.811ZM156.426 173.931C162.315 170.673 166.871 166.183 170.074 160.468L168.33 159.49C165.314 164.87 161.031 169.098 155.458 172.181L156.426 173.931ZM170.07 160.475C173.336 154.759 174.957 148.244 174.957 140.958H172.957C172.957 147.937 171.408 154.103 168.334 159.483L170.07 160.475ZM174.957 140.958V22.7178H172.957V140.958H174.957ZM283.152 22.7178H284.152V21.7178H283.152V22.7178ZM283.152 210V211H284.152V210H283.152ZM243.556 210H242.556V211H243.556V210ZM243.556 22.7178V21.7178H242.556V22.7178H243.556ZM282.152 22.7178V210H284.152V22.7178H282.152ZM283.152 209H243.556V211H283.152V209ZM244.556 210V22.7178H242.556V210H244.556ZM243.556 23.7178H283.152V21.7178H243.556V23.7178Z" fill="white"/>
</g>
<g filter="url(#filter2_di_106_1862)">
<path d="M403.06 117.639V148.548H317.649V117.639H403.06ZM468.978 169.581L469.07 122.852H474.739L519.731 69.5384H564.448L504.002 140.135H494.766L468.978 169.581ZM433.68 210V22.7178H472.636V210H433.68ZM521.468 210L480.135 148.822L506.105 121.297L567.1 210H521.468ZM723.284 69.5384V98.8012H638.696V69.5384H723.284ZM657.9 35.8861H696.856V166.837C696.856 170.434 697.405 173.239 698.502 175.25C699.6 177.201 701.124 178.573 703.075 179.365C705.086 180.158 707.403 180.554 710.024 180.554C711.853 180.554 713.682 180.402 715.511 180.097C717.34 179.731 718.742 179.457 719.718 179.274L725.845 208.263C723.894 208.872 721.15 209.573 717.615 210.366C714.079 211.219 709.781 211.737 704.721 211.92C695.332 212.286 687.102 211.036 680.03 208.171C673.019 205.306 667.563 200.855 663.661 194.82C659.759 188.784 657.839 181.164 657.9 171.958V35.8861Z" fill="white"/>
<path d="M580.985 210V69.5384H619.942V210H580.985ZM600.555 51.432C594.763 51.432 589.795 49.5116 585.649 45.6709C581.565 41.7692 579.522 37.1054 579.522 31.6796C579.522 26.3147 581.565 21.7119 585.649 17.8712C589.795 13.9695 594.763 12.0186 600.555 12.0186C606.347 12.0186 611.285 13.9695 615.369 17.8712C619.515 21.7119 621.588 26.3147 621.588 31.6796C621.588 37.1054 619.515 41.7692 615.369 45.6709C611.285 49.5116 606.347 51.432 600.555 51.432Z" fill="url(#paint0_linear_106_1862)"/>
</g>
</g>
<defs>
<filter id="filter0_d_106_1862" x="38" y="0" width="700" height="240" filterUnits="userSpaceOnUse" color-interpolation-filters="sRGB">
<feFlood flood-opacity="0" result="BackgroundImageFix"/>
<feColorMatrix in="SourceAlpha" type="matrix" values="0 0 0 0 0 0 0 0 0 0 0 0 0 0 0 0 0 0 127 0" result="hardAlpha"/>
<feOffset dy="4"/>
<feGaussianBlur stdDeviation="2"/>
<feComposite in2="hardAlpha" operator="out"/>
<feColorMatrix type="matrix" values="0 0 0 0 0 0 0 0 0 0 0 0 0 0 0 0 0 0 0.25 0"/>
<feBlend mode="normal" in2="BackgroundImageFix" result="effect1_dropShadow_106_1862"/>
<feBlend mode="normal" in="SourceGraphic" in2="effect1_dropShadow_106_1862" result="shape"/>
</filter>
<filter id="filter1_di_106_1862" x="0.929421" y="3.60182" width="339.571" height="361.978" filterUnits="userSpaceOnUse" color-interpolation-filters="sRGB">
<feFlood flood-opacity="0" result="BackgroundImageFix"/>
<feColorMatrix in="SourceAlpha" type="matrix" values="0 0 0 0 0 0 0 0 0 0 0 0 0 0 0 0 0 0 127 0" result="hardAlpha"/>
<feMorphology radius="9.55801" operator="erode" in="SourceAlpha" result="effect1_dropShadow_106_1862"/>
<feOffset dy="95.5801"/>
<feGaussianBlur stdDeviation="33.453"/>
<feColorMatrix type="matrix" values="0 0 0 0 0.00784314 0 0 0 0 0.00784314 0 0 0 0 0.00784314 0 0 0 0.05 0"/>
<feBlend mode="normal" in2="BackgroundImageFix" result="effect1_dropShadow_106_1862"/>
<feBlend mode="normal" in="SourceGraphic" in2="effect1_dropShadow_106_1862" result="shape"/>
<feColorMatrix in="SourceAlpha" type="matrix" values="0 0 0 0 0 0 0 0 0 0 0 0 0 0 0 0 0 0 127 0" result="hardAlpha"/>
<feOffset dy="-19.116"/>
<feGaussianBlur stdDeviation="9.55801"/>
<feComposite in2="hardAlpha" operator="arithmetic" k2="-1" k3="1"/>
<feColorMatrix type="matrix" values="0 0 0 0 1 0 0 0 0 1 0 0 0 0 1 0 0 0 0.2 0"/>
<feBlend mode="normal" in2="shape" result="effect2_innerShadow_106_1862"/>
</filter>
<filter id="filter2_di_106_1862" x="260.301" y="-7.0974" width="522.892" height="372.495" filterUnits="userSpaceOnUse" color-interpolation-filters="sRGB">
<feFlood flood-opacity="0" result="BackgroundImageFix"/>
<feColorMatrix in="SourceAlpha" type="matrix" values="0 0 0 0 0 0 0 0 0 0 0 0 0 0 0 0 0 0 127 0" result="hardAlpha"/>
<feMorphology radius="9.55801" operator="erode" in="SourceAlpha" result="effect1_dropShadow_106_1862"/>
<feOffset dy="95.5801"/>
<feGaussianBlur stdDeviation="33.453"/>
<feColorMatrix type="matrix" values="0 0 0 0 0.00784314 0 0 0 0 0.00784314 0 0 0 0 0.00784314 0 0 0 0.05 0"/>
<feBlend mode="normal" in2="BackgroundImageFix" result="effect1_dropShadow_106_1862"/>
<feBlend mode="normal" in="SourceGraphic" in2="effect1_dropShadow_106_1862" result="shape"/>
<feColorMatrix in="SourceAlpha" type="matrix" values="0 0 0 0 0 0 0 0 0 0 0 0 0 0 0 0 0 0 127 0" result="hardAlpha"/>
<feOffset dy="-19.116"/>
<feGaussianBlur stdDeviation="9.55801"/>
<feComposite in2="hardAlpha" operator="arithmetic" k2="-1" k3="1"/>
<feColorMatrix type="matrix" values="0 0 0 0 1 0 0 0 0 1 0 0 0 0 1 0 0 0 0.2 0"/>
<feBlend mode="normal" in2="shape" result="effect2_innerShadow_106_1862"/>
</filter>
<linearGradient id="paint0_linear_106_1862" x1="517" y1="66.5" x2="517" y2="68" gradientUnits="userSpaceOnUse">
<stop offset="0.473958" stop-color="#991F3A"/>
<stop offset="0.474058" stop-color="white"/>
</linearGradient>
</defs>
</svg>
