<svg width="784" height="366" fill="none" xmlns="http://www.w3.org/2000/svg"><g filter="url(#filter0_d_106_1862)"><g filter="url(#filter1_di_106_1862)"><path d="M173.957 22.718v-1h-1v1h1zm39.596 0h1v-1h-1v1zm-9.784 157.47l-.844-.537-.002.004.846.533zm-27.16 23.959l.438.9.004-.002-.442-.898zm-81.479 0l-.441.898.004.002.437-.9zm-27.16-23.959l-.845.534.846-.534zm-9.692-157.47v-1h-1v1h1zm39.596 0h1v-1h-1v1zm4.663 137.261l-.872.489.004.007.868-.496zm13.352 13.077l-.484.875.484-.875zm40.053 0l-.484-.875-.004.002.488.873zm13.26-13.077l-.868-.496-.004.007.872.489zm4.755-136.261h39.596v-2h-39.596v2zm38.596-1v121.624h2V22.718h-2zm0 121.624c0 13.49-3.219 25.247-9.628 35.309l1.687 1.075c6.638-10.422 9.941-22.563 9.941-36.384h-2zm-9.63 35.313c-6.357 10.074-15.265 17.94-26.756 23.595l.884 1.795c11.797-5.806 20.995-13.913 27.563-24.323l-1.691-1.067zm-26.752 23.593c-11.483 5.592-24.893 8.404-40.256 8.404v2c15.608 0 29.327-2.858 41.132-8.605l-.876-1.799zm-40.256 8.404c-15.424 0-28.864-2.812-40.347-8.404l-.875 1.799c11.805 5.748 25.555 8.605 41.222 8.605v-2zm-40.343-8.402c-11.49-5.655-20.399-13.521-26.755-23.595l-1.692 1.067c6.568 10.41 15.766 18.517 27.564 24.323l.883-1.795zm-26.755-23.595c-6.35-10.063-9.54-21.822-9.54-35.313h-2c0 13.82 3.273 25.959 9.848 36.38l1.692-1.067zm-9.54-35.313V22.718h-2v121.624h2zm-1-120.624h39.597v-2H58.278v2zm38.597-1v118.24h2V22.718h-2zm0 118.24c0 7.283 1.589 13.795 4.791 19.51l1.745-.978c-3.016-5.381-4.536-11.549-4.536-18.532h-2zm4.795 19.517c3.264 5.711 7.849 10.199 13.736 13.456l.968-1.75c-5.575-3.084-9.89-7.314-12.967-12.698l-1.737.992zm13.736 13.456c5.901 3.264 12.748 4.88 20.51 4.88v-2c-7.479 0-13.982-1.555-19.542-4.63l-.968 1.75zm20.51 4.88c7.822 0 14.671-1.615 20.515-4.883l-.976-1.745c-5.495 3.073-11.997 4.628-19.539 4.628v2zm20.511-4.88c5.889-3.258 10.445-7.748 13.648-13.463l-1.744-.978c-3.016 5.38-7.299 9.608-12.872 12.691l.968 1.75zm13.644-13.456c3.266-5.716 4.887-12.231 4.887-19.517h-2c0 6.979-1.549 13.145-4.623 18.525l1.736.992zm4.887-19.517V22.718h-2v118.24h2zm108.195-118.24h1v-1h-1v1zm0 187.282v1h1v-1h-1zm-39.596 0h-1v1h1v-1zm0-187.282v-1h-1v1h1zm38.596 0V210h2V22.718h-2zm1 186.282h-39.596v2h39.596v-2zm-38.596 1V22.718h-2V210h2zm-1-186.282h39.596v-2h-39.596v2z" fill="#fff"/></g><g filter="url(#filter2_di_106_1862)"><path d="M403.06 117.639v30.909h-85.411v-30.909h85.411zm65.918 51.942l.092-46.729h5.669l44.992-53.314h44.717l-60.446 70.597h-9.236l-25.788 29.446zM433.68 210V22.718h38.956V210H433.68zm87.788 0l-41.333-61.178 25.97-27.525L567.1 210h-45.632zM723.284 69.538v29.263h-84.588V69.538h84.588zM657.9 35.886h38.956v130.951c0 3.597.549 6.402 1.646 8.413 1.098 1.951 2.622 3.323 4.573 4.115 2.011.793 4.328 1.189 6.949 1.189 1.829 0 3.658-.152 5.487-.457 1.829-.366 3.231-.64 4.207-.823l6.127 28.989c-1.951.609-4.695 1.31-8.23 2.103-3.536.853-7.834 1.371-12.894 1.554-9.389.366-17.619-.884-24.691-3.749-7.011-2.865-12.467-7.316-16.369-13.351-3.902-6.036-5.822-13.656-5.761-22.862V35.886z" fill="#fff"/><path d="M580.985 210V69.538h38.957V210h-38.957zm19.57-158.568c-5.792 0-10.76-1.92-14.906-5.761-4.084-3.902-6.127-8.566-6.127-13.991 0-5.365 2.043-9.968 6.127-13.809 4.146-3.901 9.114-5.852 14.906-5.852s10.73 1.95 14.814 5.852c4.146 3.84 6.219 8.444 6.219 13.809 0 5.425-2.073 10.09-6.219 13.99-4.084 3.842-9.022 5.762-14.814 5.762z" fill="url(#paint0_linear_106_1862)"/></g></g><defs><filter id="filter0_d_106_1862" x="38" y="0" width="700" height="240" filterUnits="userSpaceOnUse" color-interpolation-filters="sRGB"><feFlood flood-opacity="0" result="BackgroundImageFix"/><feColorMatrix in="SourceAlpha" values="0 0 0 0 0 0 0 0 0 0 0 0 0 0 0 0 0 0 127 0" result="hardAlpha"/><feOffset dy="4"/><feGaussianBlur stdDeviation="2"/><feComposite in2="hardAlpha" operator="out"/><feColorMatrix values="0 0 0 0 0 0 0 0 0 0 0 0 0 0 0 0 0 0 0.25 0"/><feBlend in2="BackgroundImageFix" result="effect1_dropShadow_106_1862"/><feBlend in="SourceGraphic" in2="effect1_dropShadow_106_1862" result="shape"/></filter><filter id="filter1_di_106_1862" x=".929" y="3.602" width="339.571" height="361.978" filterUnits="userSpaceOnUse" color-interpolation-filters="sRGB"><feFlood flood-opacity="0" result="BackgroundImageFix"/><feColorMatrix in="SourceAlpha" values="0 0 0 0 0 0 0 0 0 0 0 0 0 0 0 0 0 0 127 0" result="hardAlpha"/><feMorphology radius="9.558" in="SourceAlpha" result="effect1_dropShadow_106_1862"/><feOffset dy="95.58"/><feGaussianBlur stdDeviation="33.453"/><feColorMatrix values="0 0 0 0 0.00784314 0 0 0 0 0.00784314 0 0 0 0 0.00784314 0 0 0 0.05 0"/><feBlend in2="BackgroundImageFix" result="effect1_dropShadow_106_1862"/><feBlend in="SourceGraphic" in2="effect1_dropShadow_106_1862" result="shape"/><feColorMatrix in="SourceAlpha" values="0 0 0 0 0 0 0 0 0 0 0 0 0 0 0 0 0 0 127 0" result="hardAlpha"/><feOffset dy="-19.116"/><feGaussianBlur stdDeviation="9.558"/><feComposite in2="hardAlpha" operator="arithmetic" k2="-1" k3="1"/><feColorMatrix values="0 0 0 0 1 0 0 0 0 1 0 0 0 0 1 0 0 0 0.2 0"/><feBlend in2="shape" result="effect2_innerShadow_106_1862"/></filter><filter id="filter2_di_106_1862" x="260.301" y="-7.097" width="522.892" height="372.495" filterUnits="userSpaceOnUse" color-interpolation-filters="sRGB"><feFlood flood-opacity="0" result="BackgroundImageFix"/><feColorMatrix in="SourceAlpha" values="0 0 0 0 0 0 0 0 0 0 0 0 0 0 0 0 0 0 127 0" result="hardAlpha"/><feMorphology radius="9.558" in="SourceAlpha" result="effect1_dropShadow_106_1862"/><feOffset dy="95.58"/><feGaussianBlur stdDeviation="33.453"/><feColorMatrix values="0 0 0 0 0.00784314 0 0 0 0 0.00784314 0 0 0 0 0.00784314 0 0 0 0.05 0"/><feBlend in2="BackgroundImageFix" result="effect1_dropShadow_106_1862"/><feBlend in="SourceGraphic" in2="effect1_dropShadow_106_1862" result="shape"/><feColorMatrix in="SourceAlpha" values="0 0 0 0 0 0 0 0 0 0 0 0 0 0 0 0 0 0 127 0" result="hardAlpha"/><feOffset dy="-19.116"/><feGaussianBlur stdDeviation="9.558"/><feComposite in2="hardAlpha" operator="arithmetic" k2="-1" k3="1"/><feColorMatrix values="0 0 0 0 1 0 0 0 0 1 0 0 0 0 1 0 0 0 0.2 0"/><feBlend in2="shape" result="effect2_innerShadow_106_1862"/></filter><linearGradient id="paint0_linear_106_1862" x1="517" y1="66.5" x2="517" y2="68" gradientUnits="userSpaceOnUse"><stop offset=".474" stop-color="#991F3A"/><stop offset=".474" stop-color="#fff"/></linearGradient></defs></svg>